<svg width="440" height="440" viewBox="0 0 440 440" xmlns="http://www.w3.org/2000/svg" role="img" aria-labelledby="title desc">
  <title id="title">AI3DMARK Logo</title>
  <desc id="desc">A rounded square with gradient background and stylized AI3D letters</desc>
  <defs>
    <linearGradient id="bgGradient" x1="0" y1="0" x2="1" y2="1">
      <stop offset="0%" stop-color="#0f172a" />
      <stop offset="50%" stop-color="#1d4ed8" />
      <stop offset="100%" stop-color="#22c55e" />
    </linearGradient>
  </defs>

  <rect x="40" y="40" width="360" height="360" rx="96" fill="url(#bgGradient)" />

  <!-- AI -->
  <path
    d="M150 285 L175 155 H210 L235 285 H215 L209 253 H176 L170 285 Z M182 235 H203 L193 185 Z"
    fill="#e5e7eb"
  />
  <rect x="245" y="155" width="22" height="130" fill="#e5e7eb" />

  <!-- 3D -->
  <path
    d="M135 190 C135 172 150 160 175 160 C197 160 212 170 212 186 C212 198 205 206 193 210 C206 213 214 221 214 235 C214 252 197 265 173 265 C150 265 135 254 135 237 L155 237 C155 245 161 249 173 249 C183 249 191 244 191 236 C191 228 184 223 171 223 L165 223 L165 206 L173 206 C185 206 193 201 193 192 C193 184 186 179 175 179 C163 179 155 184 155 192 Z"
    fill="#22c55e"
  />
  <path
    d="M228 160 H270 C298 160 316 177 316 205 C316 233 298 250 270 250 H248 V285 H228 Z M248 179 V231 H268 C283 231 295 222 295 205 C295 187 283 179 268 179 Z"
    fill="#bfdbfe"
  />
</svg>

